PathFileType	4	(X/Y/Z)	D:\Share\Shared_Data\Ergonomics\Sit To Stand Pertubation\S1\Unperturbed_NoHarness.trc
DataRate	CameraRate	NumFrames	NumMarkers	Units	OrigDataRate	OrigDataStartFrame	OrigNumFrames	
100	100	13	18	m	100	2021	241
Frame#	Time	R_Thigh_Med			R_ASIS			R_Pelvis			V_Sacral			L_Pelvis			L_ASIS			Clavical			R_Acromium			L_Acromium			Sternum			Torso			R_Thigh_Lat			R_Thigh			R_Shank_Med			R_Shank_Lat			R_Shank			R_Heel			R_Toe			
		X1	Y1	Z1	X2	Y2	Z2	X3	Y3	Z3	X4	Y4	Z4	X5	Y5	Z5	X6	Y6	Z6	X7	Y7	Z7	X8	Y8	Z8	X9	Y9	Z9	X10	Y10	Z10	X11	Y11	Z11	X12	Y12	Z12	X13	Y13	Z13	X14	Y14	Z14	X15	Y15	Z15	X16	Y16	Z16	X17	Y17	Z17	X18	Y18	Z18	

2021	20.2	0.39938867	0.40264777	0.0095954323	0.33263293	0.82318872	0.091561432	0.25744217	0.84960382	0.13276669	0.14518466	0.84332562	-0.010886538	0.25689706	0.85562695	-0.15433955	0.34621204	0.83586005	-0.10878341	0.46668991	1.1477286	-0.010156565	0.42862592	1.238766	0.13591982	0.37436063	1.2075267	-0.20323959	0.45384451	1.1660081	0.091367409	0.4617782	1.1580402	-0.066034599	0.41889804	0.42202646	0.13241736	0.40777539	0.60479095	0.086002121	0.32294833	0.092353577	0.066031754	0.2982868	0.099110435	0.14713574	0.36364236	0.30114001	0.15383969	0.24485622	0.033592476	0.093233902	0.44981876	0.04450597	0.12162605
2022	20.21	0.39835373	0.40310077	0.0099006329	0.33614404	0.82679486	0.091247009	0.2608884	0.85267688	0.13265639	0.14895572	0.84653375	-0.010979789	0.26002786	0.85864471	-0.15486507	0.34944205	0.83951886	-0.10908737	0.46664832	1.1528795	-0.010577699	0.42801984	1.2434362	0.13568341	0.37361536	1.211863	-0.20349173	0.45386432	1.1709882	0.091026634	0.46165637	1.163115	-0.066505493	0.41825967	0.4223576	0.13306239	0.40951813	0.60546844	0.085826111	0.32283746	0.092557549	0.066096169	0.29821014	0.099203651	0.14721758	0.36302124	0.30142014	0.15410913	0.24486673	0.033642521	0.093244522	0.44986255	0.044151855	0.12157253
2023	20.22	0.39724927	0.4035784	0.010215911	0.33964532	0.83034003	0.090935486	0.26431299	0.85567371	0.13252249	0.15270787	0.84972729	-0.011121746	0.2630545	0.86160529	-0.15574791	0.35266074	0.84311584	-0.10938696	0.46656662	1.1579358	-0.01099824	0.42736841	1.2480051	0.13544328	0.37283609	1.2161331	-0.20379022	0.45384995	1.1758794	0.090677536	0.46150174	1.1680995	-0.066972473	0.41755878	0.42275342	0.13365141	0.41118948	0.60614172	0.085622536	0.32271686	0.092775917	0.06616362	0.29813278	0.099305443	0.147299	0.36235376	0.30171475	0.15437906	0.2448759	0.033694294	0.09325666	0.44989493	0.043957901	0.12155076
2024	20.23	0.39608035	0.40408389	0.010534385	0.34313046	0.83382135	0.090626633	0.26772333	0.8585849	0.1323502	0.15644797	0.85289642	-0.01129369	0.26600473	0.86450842	-0.15690784	0.35587012	0.84664771	-0.10968644	0.46644696	1.1629032	-0.011415147	0.42666965	1.2524779	0.13520241	0.37202792	1.2203182	-0.20410182	0.45380173	1.1806831	0.090325363	0.46131555	1.1729911	-0.067436623	0.41680109	0.42321304	0.13420009	0.41278934	0.60681122	0.085395401	0.32258673	0.093008202	0.066234093	0.29805405	0.099414192	0.1473817	0.36163782	0.30202356	0.15465045	0.24488353	0.033746906	0.093269821	0.44991794	0.043877174	0.12155128
2025	20.24	0.39484964	0.40461899	0.010851112	0.3465939	0.83723975	0.090318275	0.27113046	0.86140027	0.13212491	0.16018224	0.85603387	-0.011478602	0.26890402	0.86736615	-0.15826253	0.35906979	0.85011169	-0.10998799	0.46629318	1.1677865	-0.011826335	0.42592453	1.2568569	0.13496281	0.37119366	1.2244065	-0.2044073	0.45371985	1.185401	0.089975266	0.46109735	1.1777865	-0.067900124	0.41599387	0.42373331	0.13473099	0.41431613	0.6074754	0.085151154	0.32244696	0.093253731	0.066307816	0.29797351	0.099528168	0.14746756	0.360875	0.30234656	0.15492513	0.24488957	0.033799236	0.09328302	0.44993295	0.043868511	0.1215657
2026	20.25	0.39355649	0.40518283	0.011164474	0.35002863	0.8405979	0.090006897	0.27455078	0.86410883	0.13183293	0.16391579	0.85913275	-0.011663013	0.2717616	0.87020331	-0.15978195	0.36225681	0.8535058	-0.11029199	0.46611063	1.1725869	-0.012230925	0.42513568	1.2611426	0.1347247	0.37033508	1.2283903	-0.20469902	0.45360394	1.190033	0.089631401	0.46084534	1.1824821	-0.068365875	0.415142	0.42430936	0.13526369	0.41576624	0.60812988	0.084895996	0.32229733	0.093511757	0.066385292	0.29789136	0.099646172	0.14755814	0.36006934	0.30268341	0.15520575	0.24489427	0.033850105	0.093295067	0.44994113	0.043900372	0.12158733
2027	20.26	0.39219949	0.40577264	0.011475509	0.35342404	0.84389728	0.08968882	0.2780062	0.86670148	0.13146371	0.16765114	0.86218604	-0.01183856	0.27459048	0.8730332	-0.16140846	0.36542526	0.85682617	-0.11059791	0.46590564	1.177302	-0.012628851	0.42430554	1.2653333	0.13448685	0.36945337	1.2322627	-0.20497775	0.45345425	1.194577	0.089295723	0.46055652	1.1870736	-0.068836472	0.41424142	0.42493167	0.13580048	0.41713504	0.60876642	0.084634491	0.32213754	0.09378154	0.066466972	0.29780795	0.09976783	0.14765422	0.35922546	0.30303299	0.1554958	0.24489827	0.033898407	0.093304741	0.44994366	0.043950214	0.12161115
2028	20.27	0.39078043	0.40638498	0.011785666	0.35676706	0.84713495	0.089361572	0.28152243	0.86918005	0.13101778	0.17138704	0.86518396	-0.012002095	0.27742328	0.87583923	-0.16299542	0.36856567	0.86006671	-0.11090474	0.46568408	1.1819252	-0.013020016	0.42343521	1.2694237	0.13424748	0.36855008	1.2360178	-0.20524825	0.45327133	1.1990276	0.088967957	0.46022696	1.1915559	-0.06931324	0.41328113	0.42558621	0.13632759	0.41842114	0.60937561	0.084370674	0.32196744	0.094062187	0.066552803	0.29772409	0.099893288	0.14775555	0.35834683	0.3033934	0.15579778	0.24490239	0.033943512	0.093311165	0.44994244	0.044003254	0.12163392
2029	20.28	0.3893049	0.40701614	0.012094821	0.3600451	0.85030457	0.089024658	0.28512619	0.87156854	0.13051717	0.1751178	0.86811444	-0.012154292	0.28029419	0.87858838	-0.16438533	0.37166501	0.86321881	-0.11121148	0.46544958	1.1864469	-0.013403789	0.42252359	1.2734053	0.13400575	0.3676283	1.2396492	-0.20551469	0.45305496	1.203376	0.088646431	0.45985214	1.1959219	-0.069795464	0.41225012	0.42625858	0.13682893	0.41963315	0.60994916	0.084109528	0.32178729	0.094352463	0.066642181	0.29764011	0.10002234	0.14786101	0.35743466	0.3037626	0.1561109	0.24490709	0.03398571	0.093314316	0.44993948	0.044051258	0.12165396
2030	20.29	0.38778101	0.40766272	0.012400762	0.36325092	0.85339679	0.088680153	0.2888381	0.87392535	0.1300188	0.17883429	0.8709632	-0.012297916	0.28321799	0.88125317	-0.16550032	0.37470694	0.86627185	-0.11151765	0.46520248	1.1908556	-0.013778971	0.42156946	1.2772661	0.13376311	0.36669254	1.2431512	-0.20577797	0.45280313	1.2076118	0.088329895	0.45943005	1.2001626	-0.070280067	0.41113983	0.42693625	0.13729311	0.4207948	0.61048328	0.083856705	0.32159775	0.094650497	0.066734001	0.29755612	0.10015382	0.14796913	0.3564888	0.30413919	0.15643088	0.2449126	0.034026047	0.093314682	0.44993671	0.044090611	0.1216706
2031	20.3	0.38621777	0.40832086	0.012699804	0.36639011	0.8564021	0.088333023	0.29266132	0.87634253	0.12961465	0.1825257	0.87371503	-0.012436904	0.28619058	0.88381519	-0.16634128	0.37767416	0.86921411	-0.1118232	0.46493732	1.1951376	-0.014143585	0.42057373	1.280993	0.13352376	0.36574768	1.2465178	-0.20603664	0.45251294	1.211724	0.088019188	0.45896579	1.2042689	-0.070761589	0.40994516	0.42760934	0.13771513	0.42194803	0.61097974	0.083617714	0.32140009	0.094953781	0.066827026	0.29747189	0.10028574	0.14807825	0.35550873	0.30452176	0.15675238	0.24491867	0.034065639	0.093312729	0.44993558	0.044120323	0.1216839
2032	20.31	0.3846243	0.40898703	0.012988013	0.36948749	0.85931323	0.087990227	0.29656827	0.87889801	0.12938182	0.1861808	0.87635516	-0.012576301	0.28919778	0.88626172	-0.16695149	0.38055139	0.87203345	-0.11212785	0.46464282	1.1992787	-0.014494402	0.41953931	1.2845724	0.13329369	0.36479715	1.2497424	-0.20628937	0.4521821	1.2157008	0.087717796	0.45847208	1.2082341	-0.071232613	0.40866797	0.42827069	0.13809822	0.42314667	0.6114455	0.083397476	0.32119583	0.095259544	0.066920265	0.29738638	0.10041568	0.14818658	0.35449408	0.30490839	0.15707166	0.24492496	0.03410524	0.093308678	0.44993625	0.044140751	0.12169439
2033	20.32	0.3830094	0.4096575	0.013261941	0.3725849	0.86212708	0.087658951	0.30047723	0.88158698	0.12931476	0.18978937	0.87887134	-0.01272229	0.29222217	0.88858392	-0.1673904	0.38333047	0.87471997	-0.11243059	0.4643064	1.2032646	-0.014827108	0.41846927	1.2879934	0.13307909	0.36384329	1.2528164	-0.20653506	0.45181	1.2195303	0.087430969	0.45796277	1.212054	-0.071684814	0.40731741	0.4289155	0.13845251	0.42443848	0.61188831	0.083200119	0.32098706	0.095565392	0.067013298	0.29729755	0.10054085	0.14829225	0.3534455	0.30529617	0.15738776	0.24493103	0.034144882	0.09330294	0.44993805	0.044152737	0.12170271
